<svg xmlns="http://www.w3.org/2000/svg" xmlns:xlink="http://www.w3.org/1999/xlink" width="309" zoomAndPan="magnify" viewBox="0 0 232.08 55.92" height="65" preserveAspectRatio="xMidYMid meet" version="1.0"><defs><g/><clipPath id="1d642d9770"><path d="M 0 0.0703125 L 230.835938 0.0703125 L 230.835938 48.628906 L 0 48.628906 Z M 0 0.0703125 " clip-rule="nonzero"/></clipPath><clipPath id="b4b98a3565"><path d="M 0 0.0703125 L 40 0.0703125 L 40 48.628906 L 0 48.628906 Z M 0 0.0703125 " clip-rule="nonzero"/></clipPath><clipPath id="befa2c60ab"><path d="M 46 0.0703125 L 95 0.0703125 L 95 48.628906 L 46 48.628906 Z M 46 0.0703125 " clip-rule="nonzero"/></clipPath><clipPath id="b504a8fc9b"><path d="M 99 0.0703125 L 147 0.0703125 L 147 48.628906 L 99 48.628906 Z M 99 0.0703125 " clip-rule="nonzero"/></clipPath><clipPath id="b2fcc47df1"><path d="M 153 0.0703125 L 193 0.0703125 L 193 48.628906 L 153 48.628906 Z M 153 0.0703125 " clip-rule="nonzero"/></clipPath><clipPath id="fdec427444"><path d="M 198 0.0703125 L 230.835938 0.0703125 L 230.835938 48.628906 L 198 48.628906 Z M 198 0.0703125 " clip-rule="nonzero"/></clipPath><clipPath id="fdd9c73db5"><path d="M 113.449219 16.019531 L 130.851562 16.019531 L 130.851562 33.421875 L 113.449219 33.421875 Z M 113.449219 16.019531 " clip-rule="nonzero"/></clipPath><clipPath id="50e0e0db10"><path d="M 122.152344 16.019531 C 117.347656 16.019531 113.449219 19.917969 113.449219 24.722656 C 113.449219 29.527344 117.347656 33.421875 122.152344 33.421875 C 126.957031 33.421875 130.851562 29.527344 130.851562 24.722656 C 130.851562 19.917969 126.957031 16.019531 122.152344 16.019531 Z M 122.152344 16.019531 " clip-rule="nonzero"/></clipPath><clipPath id="4ed4641dbd"><path d="M 0.449219 0.0195312 L 17.851562 0.0195312 L 17.851562 17.421875 L 0.449219 17.421875 Z M 0.449219 0.0195312 " clip-rule="nonzero"/></clipPath><clipPath id="e63f797ea0"><path d="M 9.152344 0.0195312 C 4.347656 0.0195312 0.449219 3.917969 0.449219 8.722656 C 0.449219 13.527344 4.347656 17.421875 9.152344 17.421875 C 13.957031 17.421875 17.851562 13.527344 17.851562 8.722656 C 17.851562 3.917969 13.957031 0.0195312 9.152344 0.0195312 Z M 9.152344 0.0195312 " clip-rule="nonzero"/></clipPath><clipPath id="a676109f92"><rect x="0" width="18" y="0" height="18"/></clipPath><clipPath id="1351e9f2a7"><rect x="0" width="231" y="0" height="49"/></clipPath></defs><g clip-path="url(#1d642d9770)"><g transform="matrix(1, 0, 0, 1, 0, -0.000000000000004163)"><g clip-path="url(#1351e9f2a7)"><g clip-path="url(#b4b98a3565)"><g fill="#222831" fill-opacity="1"><g transform="translate(-5.198533, 48.230245)"><g><path d="M 5.03125 0 L 5.03125 -48.890625 L 11.859375 -48.890625 L 36.3125 -13.59375 L 37.453125 -13.59375 L 37.453125 -48.890625 L 44.21875 -48.890625 L 44.21875 0 L 37.453125 0 L 13.015625 -35.296875 L 11.859375 -35.296875 L 11.859375 0 Z M 5.03125 0 "/></g></g></g></g><g clip-path="url(#befa2c60ab)"><g fill="#222831" fill-opacity="1"><g transform="translate(42.677105, 48.230245)"><g><path d="M 27.46875 0 C 22.476562 0 18.195312 -1.085938 14.625 -3.265625 C 11.0625 -5.453125 8.332031 -8.390625 6.4375 -12.078125 C 4.539062 -15.765625 3.59375 -19.882812 3.59375 -24.4375 C 3.59375 -28.988281 4.539062 -33.109375 6.4375 -36.796875 C 8.332031 -40.492188 11.0625 -43.429688 14.625 -45.609375 C 18.195312 -47.796875 22.476562 -48.890625 27.46875 -48.890625 C 32.445312 -48.890625 36.722656 -47.796875 40.296875 -45.609375 C 43.867188 -43.429688 46.597656 -40.492188 48.484375 -36.796875 C 50.378906 -33.109375 51.328125 -28.988281 51.328125 -24.4375 C 51.328125 -19.882812 50.378906 -15.765625 48.484375 -12.078125 C 46.597656 -8.390625 43.867188 -5.453125 40.296875 -3.265625 C 36.722656 -1.085938 32.445312 0 27.46875 0 Z M 27.46875 -6.828125 C 30.71875 -6.828125 33.625 -7.445312 36.1875 -8.6875 C 38.757812 -9.9375 40.785156 -11.851562 42.265625 -14.4375 C 43.753906 -17.03125 44.5 -20.363281 44.5 -24.4375 C 44.5 -28.507812 43.753906 -31.835938 42.265625 -34.421875 C 40.785156 -37.015625 38.757812 -38.9375 36.1875 -40.1875 C 33.625 -41.4375 30.71875 -42.0625 27.46875 -42.0625 C 24.207031 -42.0625 21.28125 -41.4375 18.6875 -40.1875 C 16.101562 -38.9375 14.078125 -37.015625 12.609375 -34.421875 C 11.148438 -31.835938 10.421875 -28.507812 10.421875 -24.4375 C 10.421875 -20.363281 11.148438 -17.03125 12.609375 -14.4375 C 14.078125 -11.851562 16.101562 -9.9375 18.6875 -8.6875 C 21.28125 -7.445312 24.207031 -6.828125 27.46875 -6.828125 Z M 27.46875 -6.828125 "/></g></g></g></g><g clip-path="url(#b504a8fc9b)"><g fill="#222831" fill-opacity="1"><g transform="translate(95.440928, 48.230245)"><g><path d="M 27.46875 0 C 22.476562 0 18.195312 -1.085938 14.625 -3.265625 C 11.0625 -5.453125 8.332031 -8.390625 6.4375 -12.078125 C 4.539062 -15.765625 3.59375 -19.882812 3.59375 -24.4375 C 3.59375 -28.988281 4.539062 -33.109375 6.4375 -36.796875 C 8.332031 -40.492188 11.0625 -43.429688 14.625 -45.609375 C 18.195312 -47.796875 22.476562 -48.890625 27.46875 -48.890625 C 32.445312 -48.890625 36.722656 -47.796875 40.296875 -45.609375 C 43.867188 -43.429688 46.597656 -40.492188 48.484375 -36.796875 C 50.378906 -33.109375 51.328125 -28.988281 51.328125 -24.4375 C 51.328125 -19.882812 50.378906 -15.765625 48.484375 -12.078125 C 46.597656 -8.390625 43.867188 -5.453125 40.296875 -3.265625 C 36.722656 -1.085938 32.445312 0 27.46875 0 Z M 27.46875 -6.828125 C 30.71875 -6.828125 33.625 -7.445312 36.1875 -8.6875 C 38.757812 -9.9375 40.785156 -11.851562 42.265625 -14.4375 C 43.753906 -17.03125 44.5 -20.363281 44.5 -24.4375 C 44.5 -28.507812 43.753906 -31.835938 42.265625 -34.421875 C 40.785156 -37.015625 38.757812 -38.9375 36.1875 -40.1875 C 33.625 -41.4375 30.71875 -42.0625 27.46875 -42.0625 C 24.207031 -42.0625 21.28125 -41.4375 18.6875 -40.1875 C 16.101562 -38.9375 14.078125 -37.015625 12.609375 -34.421875 C 11.148438 -31.835938 10.421875 -28.507812 10.421875 -24.4375 C 10.421875 -20.363281 11.148438 -17.03125 12.609375 -14.4375 C 14.078125 -11.851562 16.101562 -9.9375 18.6875 -8.6875 C 21.28125 -7.445312 24.207031 -6.828125 27.46875 -6.828125 Z M 27.46875 -6.828125 "/></g></g></g></g><g clip-path="url(#b2fcc47df1)"><g fill="#222831" fill-opacity="1"><g transform="translate(148.276643, 48.230245)"><g><path d="M 5.03125 0 L 5.03125 -48.890625 L 11.859375 -48.890625 L 11.859375 -27.828125 L 21.203125 -27.828125 L 35.65625 -48.890625 L 43.859375 -48.890625 L 27.03125 -24.4375 L 43.859375 0 L 35.65625 0 L 21.203125 -21.0625 L 11.859375 -21.0625 L 11.859375 0 Z M 5.03125 0 "/></g></g></g></g><g clip-path="url(#fdec427444)"><g fill="#222831" fill-opacity="1"><g transform="translate(193.636222, 48.230245)"><g><path d="M 5.03125 0 L 5.03125 -48.890625 L 37.171875 -48.890625 L 37.171875 -42.0625 L 11.140625 -42.0625 L 11.140625 -28.25 L 31.703125 -28.25 L 31.703125 -21.421875 L 11.140625 -21.421875 L 11.140625 -6.828125 L 37.171875 -6.828125 L 37.171875 0 Z M 5.03125 0 "/></g></g></g></g><g clip-path="url(#fdd9c73db5)"><g clip-path="url(#50e0e0db10)"><g transform="matrix(1, 0, 0, 1, 113, 16)"><g clip-path="url(#a676109f92)"><g clip-path="url(#4ed4641dbd)"><g clip-path="url(#e63f797ea0)"><path fill="#d97706" d="M 0.449219 0.0195312 L 17.851562 0.0195312 L 17.851562 17.421875 L 0.449219 17.421875 Z M 0.449219 0.0195312 " fill-opacity="1" fill-rule="nonzero"/></g></g></g></g></g></g></g></g></g></svg>